<?xml version="1.0" standalone="no"?>
<!DOCTYPE svg PUBLIC "-//W3C//DTD SVG 20010904//EN"
 "http://www.w3.org/TR/2001/REC-SVG-20010904/DTD/svg10.dtd">
<svg version="1.0" xmlns="http://www.w3.org/2000/svg"
 width="200.000000pt" height="200.000000pt" viewBox="0 0 200.000000 200.000000"
 preserveAspectRatio="xMidYMid meet">

<g transform="translate(0.000000,200.000000) scale(0.100000,-0.100000)"
fill="#000000" stroke="none">
<path d="M955 1818 c-11 -6 -57 -47 -103 -92 l-82 -81 97 -97 c91 -92 100 -98
138 -98 77 0 141 -68 133 -141 -2 -24 12 -43 89 -122 89 -90 94 -94 137 -94
75 0 127 -49 128 -120 1 -79 -51 -133 -127 -133 -80 0 -130 53 -128 136 l1 51
-84 84 -84 84 0 -235 c0 -227 1 -236 21 -248 23 -15 49 -70 49 -104 0 -61 -69
-128 -133 -128 -66 0 -127 62 -127 130 0 40 29 93 59 110 20 10 21 19 21 244
l0 234 -25 16 c-37 25 -58 72 -52 122 4 42 4 43 -87 133 -50 50 -96 91 -101
91 -14 0 -520 -509 -534 -537 -19 -37 -13 -78 18 -119 27 -37 563 -572 718
-717 77 -72 106 -82 161 -53 33 18 775 762 791 793 16 31 14 75 -5 103 -24 36
-722 737 -768 771 -41 31 -85 37 -121 17z"/>
</g>
</svg>
