<?xml version="1.0" standalone="no"?>
<!DOCTYPE svg PUBLIC "-//W3C//DTD SVG 20010904//EN"
 "http://www.w3.org/TR/2001/REC-SVG-20010904/DTD/svg10.dtd">
<svg version="1.0" xmlns="http://www.w3.org/2000/svg"
 width="225.000000pt" height="225.000000pt" viewBox="0 0 225.000000 225.000000"
 preserveAspectRatio="xMidYMid meet">

<g transform="translate(0.000000,225.000000) scale(0.100000,-0.100000)"
fill="#000000" stroke="none">
<path d="M0 1125 l0 -1125 1125 0 1125 0 0 1125 0 1125 -1125 0 -1125 0 0
-1125z m1631 375 c116 -22 218 -101 269 -207 32 -66 40 -209 15 -286 -48 -154
-225 -271 -382 -253 -63 7 -141 36 -193 70 l-36 24 -18 -112 c-9 -61 -22 -139
-28 -173 l-11 -63 -90 0 -89 0 6 27 c5 22 56 314 80 454 3 15 -3 37 -15 55
-34 49 -81 145 -110 224 l-27 75 -4 -165 c-3 -158 -5 -168 -32 -224 -52 -106
-127 -163 -244 -186 -113 -23 -227 15 -308 102 -84 89 -88 109 -92 386 l-3
242 85 0 86 0 0 -207 c0 -115 5 -225 10 -245 40 -144 224 -175 298 -49 27 46
27 47 30 274 l3 227 147 0 147 0 17 -62 c9 -35 26 -89 38 -121 l22 -59 30 59
c76 151 229 225 399 193z"/>
<path d="M1485 1336 c-66 -30 -113 -108 -139 -231 l-14 -67 41 -42 c61 -60
109 -81 188 -81 55 0 72 4 108 28 86 57 116 188 67 292 -13 28 -32 58 -42 67
-51 45 -149 61 -209 34z"/>
</g>
</svg>
