<svg xmlns="http://www.w3.org/2000/svg" version="1.1" xmlns:xlink="http://www.w3.org/1999/xlink" xmlns:svgjs="http://svgjs.com/svgjs" width="1440" height="560" preserveAspectRatio="none" viewBox="0 0 1440 560"><g mask="url(&quot;#SvgjsMask1000&quot;)" fill="none"><rect width="1440" height="560" x="0" y="0" fill="#0e2a47"></rect><path d="M0,597.205C110.571,590.64,197.615,512.008,294.214,457.807C397.692,399.746,516.562,363.621,586.775,267.971C664.816,161.657,713.729,30.257,704.639,-101.312C695.249,-237.228,647.917,-386.663,536.163,-464.588C426.577,-541.001,277.937,-486.653,144.444,-491.93C46.278,-495.811,-48.012,-510.921,-144.314,-491.489C-248.15,-470.536,-346.588,-436.356,-433.199,-375.369C-539.643,-300.416,-687.977,-230.247,-699.477,-100.57C-711.1,30.494,-557.279,111.317,-486.178,222.03C-427.326,313.67,-403.78,427.595,-317.558,494.131C-227.631,563.526,-113.39,603.938,0,597.205" fill="#0b2036"></path><path d="M1440 930.55C1513.117 923.0899999999999 1591.762 932.015 1652.229 890.235 1712.034 848.912 1737.862 775.707 1762.876 707.453 1786.306 643.521 1785.897 577.254 1791.79 509.42 1799.57 419.865 1861.6019999999999 313.624 1803.0149999999999 245.44600000000003 1744.504 177.356 1630.214 223.502 1540.661 217.18 1471.864 212.32299999999998 1406.897 209.49 1338 212.61900000000003 1246.177 216.789 1139.3809999999999 179.378 1069.0819999999999 238.598 999.568 297.156 991.808 406.36400000000003 1000.62 496.827 1008.554 578.273 1081.347 633.832 1114.854 708.489 1148.674 783.844 1129.78 889.998 1197.987 936.5799999999999 1266.002 983.0319999999999 1358.061 938.9100000000001 1440 930.55" fill="#113458"></path></g><defs><mask id="SvgjsMask1000"><rect width="1440" height="560" fill="#ffffff"></rect></mask></defs></svg>